<?xml version="1.0" encoding="utf-8"?>
<!-- Generator: Adobe Illustrator 16.0.0, SVG Export Plug-In . SVG Version: 6.00 Build 0)  -->
<!DOCTYPE svg PUBLIC "-//W3C//DTD SVG 1.1//EN" "http://www.w3.org/Graphics/SVG/1.1/DTD/svg11.dtd">
<svg version="1.1" id="Capa_1" xmlns="http://www.w3.org/2000/svg" xmlns:xlink="http://www.w3.org/1999/xlink" x="0px" y="0px"
	 width="24px" height="24px" viewBox="0 0 24 24" enable-background="new 0 0 24 24" xml:space="preserve">
<path fill="none" d="M24,0v24H0V0H24z"/>
<path fill="#37474F" d="M22.439,21.04c-0.42,0.51-0.899,0.979-1.41,1.41l-4.42-4.421C16.49,18.13,16.37,18.219,16.24,18.3
	C14.76,19.37,12.95,20,11,20c-4.971,0-9-4.02-9-9c0-4.98,4.029-9,9-9s9,4.03,9,9c0,1.84-0.561,3.561-1.52,4.99
	c-0.143,0.22-0.301,0.43-0.461,0.63L22.439,21.04z"/>
<path fill="#BBDEFB" d="M11,18c-3.87,0-7-3.13-7-7s3.13-7,7-7s7,3.13,7,7S14.87,18,11,18z"/>
<path fill="#263238" d="M22.439,21.04c-0.42,0.51-0.899,0.979-1.41,1.41l-4.42-4.421C16.49,18.13,16.37,18.219,16.24,18.3
	l-0.01-0.021c0,0,1.1-0.729,2.237-2.299l0.013,0.01c-0.143,0.22-0.301,0.43-0.461,0.63L22.439,21.04z"/>
</svg>
