<?xml version="1.0" encoding="utf-8"?>
<!-- Generator: Adobe Illustrator 16.0.0, SVG Export Plug-In . SVG Version: 6.00 Build 0)  -->
<!DOCTYPE svg PUBLIC "-//W3C//DTD SVG 1.1//EN" "http://www.w3.org/Graphics/SVG/1.1/DTD/svg11.dtd">
<svg version="1.1" id="Capa_1" xmlns="http://www.w3.org/2000/svg" xmlns:xlink="http://www.w3.org/1999/xlink" x="0px" y="0px"
	 width="24px" height="24px" viewBox="0 0 24 24" enable-background="new 0 0 24 24" xml:space="preserve">
<path fill="#FFC107" d="M2,17c0,1.1,0.9,2,2,2h16c1.1,0,2-0.9,2-2V7H2.008L2,17z"/>
<path fill="#FF9800" d="M20,5h-8l-2-2H4C2.9,3,2.01,3.9,2.01,5L2.008,7H22C22,5.9,21.1,5,20,5z"/>
<rect fill="none" width="24" height="24"/>
<path fill="#37474F" d="M6.756,8.755c-2.341,2.34-2.341,6.145,0,8.485c2.1,2.1,5.373,2.32,7.714,0.645l4.306,4.307l1.415-1.416
	l-4.306-4.305c1.675-2.342,1.455-5.615-0.645-7.715C12.9,6.415,9.096,6.415,6.756,8.755z M13.826,15.826
	c-1.563,1.563-4.094,1.563-5.656,0c-1.563-1.563-1.563-4.094,0-5.656c1.563-1.563,4.094-1.563,5.656,0
	C15.389,11.732,15.389,14.264,13.826,15.826z"/>
</svg>
