<?xml version="1.0" encoding="utf-8"?>
<!-- Generator: Adobe Illustrator 16.0.0, SVG Export Plug-In . SVG Version: 6.00 Build 0)  -->
<!DOCTYPE svg PUBLIC "-//W3C//DTD SVG 1.1//EN" "http://www.w3.org/Graphics/SVG/1.1/DTD/svg11.dtd">
<svg version="1.1" id="Layer_1" xmlns="http://www.w3.org/2000/svg" xmlns:xlink="http://www.w3.org/1999/xlink" x="0px" y="0px"
	 width="24px" height="24px" viewBox="0 0 24 24" enable-background="new 0 0 24 24" xml:space="preserve">
<path fill="#FFFFFF" d="M19,3.375C19,2.063,17.937,1,16.625,1H4.375C3.063,1,2,2.063,2,3.375v15.25C2,19.937,3.063,21,4.375,21
	h12.25C17.937,21,19,19.937,19,18.625V3.375z"/>
<path fill="#455A64" d="M17.51,12.01c0,1.5-0.51,2.891-1.38,3.99c-0.03,0.039-0.062,0.08-0.091,0.119
	c-0.029,0.041-0.069,0.08-0.1,0.121l0.01,0.01c-0.103,0.13-0.209,0.25-0.319,0.35c-0.101,0.102-0.19,0.18-0.271,0.25
	c-0.021,0.021-0.041,0.03-0.063,0.051c-0.012,0.021-0.03,0.039-0.053,0.051l-0.01-0.012c-0.067,0.063-0.107,0.09-0.107,0.09
	c-1.117,0.931-2.557,1.48-4.117,1.48c-3.59,0-6.5-2.91-6.5-6.5c0-1.82,0.75-3.47,1.96-4.65c1.17-1.14,2.771-1.85,4.54-1.85
	C14.6,5.51,17.51,8.42,17.51,12.01z"/>
<path opacity="0.2" fill="#546E7A" enable-background="new    " d="M15.76,16.74L15.4,17.097l-0.148-0.147l-0.012-0.01
	c-0.068,0.061-0.108,0.09-0.108,0.09c-1.122,0.931-2.562,1.48-4.122,1.48c-3.59,0-6.5-2.91-6.5-6.5c0-1.82,0.75-3.47,1.96-4.65
	l9.16,9.24L15.76,16.74z"/>
<path fill="#81D4FA" d="M15.51,12.01c0,1.23-0.49,2.35-1.3,3.16c-0.81,0.83-1.95,1.34-3.2,1.34c-2.49,0-4.5-2.01-4.5-4.5
	c0-1.27,0.529-2.42,1.38-3.23c0.8-0.79,1.91-1.27,3.12-1.27C13.5,7.51,15.51,9.52,15.51,12.01z"/>
<polygon fill="#E53935" points="22,21.51 21.23,22.279 20.51,23 20.06,22.55 19.869,22.359 19.59,22.09 19.41,21.9 15.51,18.01 
	15.51,17.22 16.22,16.51 17.01,16.51 20.92,20.43 21.109,20.609 21.38,20.89 21.57,21.08 "/>
<path fill="#455A64" d="M16.13,16c-0.03,0.039-0.062,0.08-0.091,0.119c0.029-0.039,0.061-0.09,0.08-0.129L16.13,16z"/>
<polygon fill="#EF5350" points="21.279,22.199 21.23,22.279 20.51,23 20.06,22.55 19.869,22.359 19.59,22.09 19.41,21.9 
	15.51,18.01 15.51,17.22 15.5,17.21 15.82,16.89 15.83,16.9 "/>
<path fill="#263238" d="M16.27,16.51l-0.619,0.57l-0.148,0.13l-0.25-0.261l-0.012-0.01c0.021-0.013,0.039-0.029,0.062-0.041
	c0.021-0.021,0.04-0.029,0.062-0.052c0.17-0.147,0.398-0.356,0.592-0.601l0.265,0.264H16.27z"/>
<path fill="#263238" d="M15.63,16.6l0.255,0.27L15.5,17.21l-0.25-0.261C15.25,16.949,15.563,16.689,15.63,16.6z"/>
<path opacity="0.2" fill="#B2DFDB" enable-background="new    " d="M14.21,15.17c-0.81,0.83-1.95,1.34-3.2,1.34
	c-2.49,0-4.5-2.01-4.5-4.5c0-1.27,0.529-2.42,1.38-3.23L14.21,15.17z"/>
<rect fill="none" width="24" height="24"/>
</svg>
