<?xml version="1.0" encoding="utf-8"?>
<!-- Generator: Adobe Illustrator 15.0.0, SVG Export Plug-In . SVG Version: 6.00 Build 0)  -->
<!DOCTYPE svg PUBLIC "-//W3C//DTD SVG 1.1//EN" "http://www.w3.org/Graphics/SVG/1.1/DTD/svg11.dtd">
<svg version="1.1" id="Capa_1" xmlns="http://www.w3.org/2000/svg" xmlns:xlink="http://www.w3.org/1999/xlink" x="0px" y="0px"
	 width="24px" height="24px" viewBox="0 0 24 24" enable-background="new 0 0 24 24" xml:space="preserve">
<g id="Capa_1_1_">
	<path fill="none" d="M0,0h24v24H0V0z"/>
	<path fill="#37474F" d="M21,7v12c0,1.1-0.9,2-2,2H5c-1.109,0-2-0.9-2-2V5c0-1.1,0.891-2,2-2h12L21,7z"/>
	<path fill="#B0BEC5" d="M15,16c0,1.66-1.34,3-3,3h-0.05C10.311,18.971,9,17.641,9,16s1.311-2.971,2.95-3H12
		C13.66,13,15,14.34,15,16z"/>
	<rect x="5" y="5" fill="#B0BEC5" width="10" height="4"/>
</g>
<rect x="5" y="3" fill="#78909C" width="10" height="2"/>
</svg>
