<?xml version="1.0" encoding="utf-8"?>
<!-- Generator: Adobe Illustrator 15.0.0, SVG Export Plug-In . SVG Version: 6.00 Build 0)  -->
<!DOCTYPE svg PUBLIC "-//W3C//DTD SVG 1.1//EN" "http://www.w3.org/Graphics/SVG/1.1/DTD/svg11.dtd">
<svg version="1.1" id="Capa_1" xmlns="http://www.w3.org/2000/svg" xmlns:xlink="http://www.w3.org/1999/xlink" x="0px" y="0px"
	 width="24px" height="24px" viewBox="0 0 24 24" enable-background="new 0 0 24 24" xml:space="preserve">
<rect fill="none" width="24" height="24"/>
<path display="none" fill="#FFA726" d="M24.18-20c0,0.28-0.22,0.5-0.5,0.5h-14c-0.28,0-0.5-0.22-0.5-0.5s0.22-0.5,0.5-0.5h14
	C23.96-20.5,24.18-20.28,24.18-20z"/>
<path display="none" fill="#FFB74D" d="M19-20.5h-5c0-1,1-2,2.5-2S19-21.5,19-20.5z"/>
<polygon display="none" fill="#FFB74D" points="18,-7.5 15,-7.5 15.998,-19.516 17,-19.5 "/>
<path display="none" fill="#FFA726" d="M19-7c0-0.275-0.225-0.5-0.5-0.5h-4C14.225-7.5,14-7.275,14-7l0,0c0,0.275,0.225,0.5,0.5,0.5
	h4C18.775-6.5,19-6.725,19-7L19-7z"/>
<path display="none" fill="#FFA726" d="M20-6c0-0.275-0.225-0.5-0.5-0.5h-6C13.225-6.5,13-6.275,13-6l0,0c0,0.275,0.225,0.5,0.5,0.5
	h6C19.775-5.5,20-5.725,20-6L20-6z"/>
<path display="none" fill="#9575CD" d="M14-13c0-0.275-0.225-0.5-0.5-0.5h-6C7.224-13.5,7-13.275,7-13l0,0
	c0,0.275,0.224,0.5,0.5,0.5h6C13.775-12.5,14-12.725,14-13L14-13z"/>
<path display="none" fill="#9575CD" d="M13-12.5c0-0.553-0.447-1-1-1H9c-0.553,0-1,0.447-1,1l0,0c0,0.553,0.447,1,1,1h3
	C12.553-11.5,13-11.947,13-12.5L13-12.5z"/>
<path display="none" fill="#9575CD" d="M26-13c0-0.275-0.225-0.5-0.5-0.5h-6c-0.275,0-0.5,0.225-0.5,0.5l0,0
	c0,0.275,0.225,0.5,0.5,0.5h6C25.775-12.5,26-12.725,26-13L26-13z"/>
<path display="none" fill="#9575CD" d="M25-12.5c0-0.553-0.447-1-1-1h-3c-0.553,0-1,0.447-1,1l0,0c0,0.553,0.447,1,1,1h3
	C24.553-11.5,25-11.947,25-12.5L25-12.5z"/>
<path fill="#9575CD" d="M1,13c0.515,1.154,2.101,2,4,2s3.485-0.846,4-2H1z"/>
<path fill="#9575CD" d="M15,13c0.516,1.154,2.101,2,4,2s3.485-0.846,4-2H15z"/>
<polygon opacity="0.5" fill="#9575CD" points="5,8 3,13 7,13 "/>
<polygon opacity="0.5" fill="#9575CD" points="19,8 17,13 21,13 "/>
<path fill="#FFA000" d="M19,5c-0.437,0-0.316,0-4,0H9C5.316,5,5.437,5,5,5C3.896,5,3,5.896,3,7h18C21,5.896,20.104,5,19,5z"/>
<path fill="#FFA000" d="M12,3c-1.656,0-3,1.343-3,3h6C15,4.343,13.656,3,12,3z"/>
<path fill="#FFC107" d="M13,17c0-3.549,0-10.615,0-11c0-0.552-0.447-1-1-1s-1,0.448-1,1c0,0.346,0,7.441,0,11l-4,4h10L13,17z"/>
</svg>
