<?xml version="1.0" encoding="utf-8"?>
<!-- Generator: Adobe Illustrator 16.0.0, SVG Export Plug-In . SVG Version: 6.00 Build 0)  -->
<!DOCTYPE svg PUBLIC "-//W3C//DTD SVG 1.1//EN" "http://www.w3.org/Graphics/SVG/1.1/DTD/svg11.dtd">
<svg version="1.1" id="Capa_1" xmlns="http://www.w3.org/2000/svg" xmlns:xlink="http://www.w3.org/1999/xlink" x="0px" y="0px"
	 width="24px" height="24px" viewBox="0 0 24 24" enable-background="new 0 0 24 24" xml:space="preserve">
<path fill="#90A4AE" d="M9,12c0,1.65,1.35,3,3,3v7h-2c-0.25,0-0.46-0.18-0.49-0.42l-0.38-2.65c-0.61-0.25-1.17-0.58-1.689-0.979
	l-2.49,1c-0.22,0.08-0.49,0-0.61-0.22l-2-3.461c-0.12-0.22-0.07-0.489,0.12-0.64l2.11-1.649C4.53,12.66,4.5,12.33,4.5,12
	s0.03-0.66,0.07-0.98L2.46,9.37C2.27,9.22,2.21,8.95,2.34,8.73l2-3.46c0.12-0.22,0.38-0.31,0.61-0.22l2.49,1
	C7.96,5.66,8.52,5.32,9.13,5.07l0.38-2.65C9.54,2.18,9.75,2,10,2h2v7C10.35,9,9,10.35,9,12z"/>
<g id="Capa_1_1_">
	<path fill="#78909C" d="M19.43,12.98c0.04-0.32,0.07-0.641,0.07-0.98s-0.03-0.66-0.07-0.98l2.11-1.649
		c0.19-0.15,0.24-0.42,0.12-0.64l-2-3.46c-0.12-0.22-0.391-0.3-0.61-0.22l-2.49,1c-0.52-0.4-1.079-0.73-1.689-0.98l-0.38-2.65
		C14.46,2.18,14.25,2,14,2h-2v7c1.65,0,3,1.35,3,3c0,1.65-1.35,3-3,3v7h2c0.25,0,0.46-0.18,0.49-0.42l0.38-2.65
		c0.61-0.25,1.17-0.59,1.689-0.979l2.49,1c0.23,0.09,0.49,0,0.61-0.22l2-3.461c0.12-0.22,0.07-0.489-0.12-0.64L19.43,12.98z"/>
	<path fill="#546E7A" d="M12,7c-2.76,0-5,2.24-5,5s2.24,5,5,5s5-2.24,5-5S14.76,7,12,7z M12,15c-1.65,0-3-1.35-3-3
		c0-1.65,1.35-3,3-3s3,1.35,3,3C15,13.65,13.65,15,12,15z"/>
</g>
<g id="Capa_2">
</g>
<rect fill="none" width="24" height="24"/>
</svg>
