<?xml version="1.0" encoding="utf-8"?>
<!-- Generator: Adobe Illustrator 16.0.0, SVG Export Plug-In . SVG Version: 6.00 Build 0)  -->
<!DOCTYPE svg PUBLIC "-//W3C//DTD SVG 1.1//EN" "http://www.w3.org/Graphics/SVG/1.1/DTD/svg11.dtd">
<svg version="1.1" id="Capa_1" xmlns="http://www.w3.org/2000/svg" xmlns:xlink="http://www.w3.org/1999/xlink" x="0px" y="0px"
	 width="24px" height="24px" viewBox="0 0 24 24" enable-background="new 0 0 24 24" xml:space="preserve">
<path fill="none" d="M0,0h24v24H0V0z"/>
<path fill="#FFFFFF" d="M94.5-4.5"/>
<rect x="5" y="3" fill="#FFFFFF" width="15" height="5"/>
<path fill="#CFD8DC" d="M22,8v10.031c0,1.1-0.9,1.969-2,1.969H4c-1.1,0-2-0.869-2-1.969L2.01,8H22z"/>
<path fill="#455A64" d="M22,3v5H2.006L2,5c0-1.1,0.891-2,1.99-2h1l1.99,3.97L6.99,7h3L9.98,6.97L7.99,3h2l1.99,3.97L11.99,7h3
	l-0.01-0.03L12.99,3h2l1.99,3.97L16.99,7h3l-0.01-0.03L17.99,3H22z"/>
<rect x="4" y="10" fill="#455A64" width="17" height="2"/>
<rect x="4" y="14" fill="#455A64" width="7" height="2"/>
<rect x="13" y="14" fill="#455A64" width="8" height="2"/>
</svg>
