<?xml version="1.0" encoding="utf-8"?>
<!-- Generator: Adobe Illustrator 16.0.0, SVG Export Plug-In . SVG Version: 6.00 Build 0)  -->
<!DOCTYPE svg PUBLIC "-//W3C//DTD SVG 1.1//EN" "http://www.w3.org/Graphics/SVG/1.1/DTD/svg11.dtd">
<svg version="1.1" id="Layer_1" xmlns="http://www.w3.org/2000/svg" xmlns:xlink="http://www.w3.org/1999/xlink" x="0px" y="0px"
	 width="24px" height="24px" viewBox="0 0 24 24" enable-background="new 0 0 24 24" xml:space="preserve">
<polygon fill="#311B92" points="20,15 20,17 19,17 19,16 13,16 13,17 12,17 12,16 6,16 6,17 5,17 5,15 12,15 12,13 13,13 13,15 "/>
<rect x="10" y="3" fill="#42A5F5" width="5" height="4"/>
<rect x="10" y="9" fill="#7986CB" width="5" height="4"/>
<rect x="3" y="17" fill="#9575CD" width="5" height="4"/>
<rect x="10" y="17" fill="#9575CD" width="5" height="4"/>
<rect x="17" y="17" fill="#9575CD" width="5" height="4"/>
<rect x="12" y="7" fill="#311B92" width="1" height="2"/>
<rect fill="none" width="24" height="24"/>
</svg>
