<?xml version="1.0" encoding="utf-8"?>
<!-- Generator: Adobe Illustrator 16.0.0, SVG Export Plug-In . SVG Version: 6.00 Build 0)  -->
<!DOCTYPE svg PUBLIC "-//W3C//DTD SVG 1.1//EN" "http://www.w3.org/Graphics/SVG/1.1/DTD/svg11.dtd">
<svg version="1.1" id="Layer_1" xmlns="http://www.w3.org/2000/svg" xmlns:xlink="http://www.w3.org/1999/xlink" x="0px" y="0px"
	 width="24px" height="24px" viewBox="0 0 24 24" enable-background="new 0 0 24 24" xml:space="preserve">
<path fill="#BA68C8" d="M12,1v9L5.28,4.02C6.93,2.17,9.33,1,12,1z"/>
<path fill="#F06292" d="M17,21.1c-1.52,1.19-3.439,1.9-5.52,1.9c-4.97,0-9-4.03-9-9h9L17,21.1z"/>
<path fill="#FFD54F" d="M23,11h-9V2C18.97,2,23,6.03,23,11z"/>
<path fill="#AED581" d="M23,13c0,2.89-1.36,5.46-3.48,7.1L14,13H23z"/>
<path fill="#4FC3F7" d="M10,12H1c0-2.29,0.86-4.4,2.28-5.98L10,12z"/>
<rect fill="none" width="24" height="24"/>
</svg>
