<?xml version="1.0" encoding="utf-8"?>
<!-- Generator: Adobe Illustrator 16.0.0, SVG Export Plug-In . SVG Version: 6.00 Build 0)  -->
<!DOCTYPE svg PUBLIC "-//W3C//DTD SVG 1.1//EN" "http://www.w3.org/Graphics/SVG/1.1/DTD/svg11.dtd">
<svg version="1.1" id="Layer_1" xmlns="http://www.w3.org/2000/svg" xmlns:xlink="http://www.w3.org/1999/xlink" x="0px" y="0px"
	 width="24px" height="24px" viewBox="0 0 24 24" enable-background="new 0 0 24 24" xml:space="preserve">
<path fill="none" d="M0,0h24v24H0V0z"/>
<path fill="#4FC3F7" d="M13,2.05c5.055,0.502,9,4.764,9,9.95c0,2.4-0.848,4.604-2.258,6.328L13,11.586V2.05z"/>
<path fill="#BA68C8" d="M11,2.05c-2.011,0.2-3.846,0.996-5.327,2.208L11,9.585V2.05z"/>
<path fill="#F06292" d="M4.258,5.672C2.848,7.396,2,9.599,2,12c0,5.523,4.477,10,10,10c2.4,0,4.604-0.848,6.328-2.258L4.258,5.672z"
	/>
</svg>
