<?xml version="1.0" encoding="utf-8"?>
<!-- Generator: Adobe Illustrator 16.0.0, SVG Export Plug-In . SVG Version: 6.00 Build 0)  -->
<!DOCTYPE svg PUBLIC "-//W3C//DTD SVG 1.1//EN" "http://www.w3.org/Graphics/SVG/1.1/DTD/svg11.dtd">
<svg version="1.1" id="Layer_1" xmlns="http://www.w3.org/2000/svg" xmlns:xlink="http://www.w3.org/1999/xlink" x="0px" y="0px"
	 width="24px" height="24px" viewBox="0 0 24 24" enable-background="new 0 0 24 24" xml:space="preserve">
<path fill="none" d="M0,0h24v24H0V0z"/>
<polygon fill="#BA68C8" points="6,4 6,16 22,16 22,4 18,8 16,8 14,6 10,6 8,4 "/>
<polygon fill="#546E7A" points="2,20 2,4 4,4 4,18 22,18 22,20 "/>
<polygon fill="#F06292" points="6,7 6,16 22,16 22,7 18,11 16,8 14,10 "/>
<polygon fill="#4FC3F7" points="6,10 6,16 22,16 22,13 20,11 18,13 14,11 10,13 "/>
</svg>
