<?xml version="1.0" encoding="utf-8"?>
<!-- Generator: Adobe Illustrator 16.0.0, SVG Export Plug-In . SVG Version: 6.00 Build 0)  -->
<!DOCTYPE svg PUBLIC "-//W3C//DTD SVG 1.1//EN" "http://www.w3.org/Graphics/SVG/1.1/DTD/svg11.dtd">
<svg version="1.1" id="Capa_1" xmlns="http://www.w3.org/2000/svg" xmlns:xlink="http://www.w3.org/1999/xlink" x="0px" y="0px"
	 width="24px" height="24px" viewBox="0 0 24 24" enable-background="new 0 0 24 24" xml:space="preserve">
<path fill="#B0BEC5" d="M16,3l-4,4L8,3V2h8V3z M19,19c0,0,0-3,0-4c0-4.031-2.605-7.445-6-8h-1h-1c-3.393,0.555-6,3.971-6,8
	c0,1,0,4,0,4l-2,2v1h18v-1L19,19z"/>
<rect x="11" y="6" fill="#37474F" width="2" height="1"/>
<polygon fill="#37474F" points="15,11 15,13 11,13 11,14 14,14 15,15 15,18 14,19 13,19 13,20 11,20 11,19 9,19 9,17 13,17 13,16 
	10,16 9,15 9,12 10,11 11,11 11,10 13,10 13,11 "/>
<rect fill="none" width="24" height="24"/>
</svg>
