<?xml version="1.0" encoding="utf-8"?>
<!-- Generator: Adobe Illustrator 16.0.0, SVG Export Plug-In . SVG Version: 6.00 Build 0)  -->
<!DOCTYPE svg PUBLIC "-//W3C//DTD SVG 1.1//EN" "http://www.w3.org/Graphics/SVG/1.1/DTD/svg11.dtd">
<svg version="1.1" id="Layer_1" xmlns="http://www.w3.org/2000/svg" xmlns:xlink="http://www.w3.org/1999/xlink" x="0px" y="0px"
	 width="24px" height="24px" viewBox="0 0 24 24" enable-background="new 0 0 24 24" xml:space="preserve">
<path fill="#FFF176" d="M17,15.91V16c0,3.31-2.69,6-6,6s-6-2.69-6-6c0-2.97,2.16-5.44,5-5.91C10.05,13.36,12.72,16,16,16
	C16.34,16,16.68,15.97,17,15.91z"/>
<path fill="#81C784" d="M17,15.91C16.68,15.97,16.34,16,16,16c-3.28,0-5.95-2.64-6-5.91c0.32-0.06,0.66-0.09,1-0.09
	C14.28,10,16.95,12.64,17,15.91z"/>
<path fill="#64B5F6" d="M22,10c0,2.97-2.16,5.44-5,5.91C16.95,12.64,14.28,10,11,10c-0.34,0-0.68,0.03-1,0.09V10c0-3.31,2.69-6,6-6
	S22,6.69,22,10z"/>
<circle fill="#F06292" cx="5" cy="5" r="3"/>
<rect fill="none" width="24" height="24"/>
</svg>
