<?xml version="1.0" encoding="utf-8"?>
<!-- Generator: Adobe Illustrator 16.0.0, SVG Export Plug-In . SVG Version: 6.00 Build 0)  -->
<!DOCTYPE svg PUBLIC "-//W3C//DTD SVG 1.1//EN" "http://www.w3.org/Graphics/SVG/1.1/DTD/svg11.dtd">
<svg version="1.1" id="Layer_1" xmlns="http://www.w3.org/2000/svg" xmlns:xlink="http://www.w3.org/1999/xlink" x="0px" y="0px"
	 width="24px" height="24px" viewBox="0 0 24 24" enable-background="new 0 0 24 24" xml:space="preserve">
<g>
	<g id="Layer_1_1_">
		<circle fill="#546E7A" cx="8" cy="5" r="3"/>
		<path fill="#37474F" d="M10.291,9.797l-1.492,3.24l-0.581-2.382l0.535-1.116C8.483,9.515,8.227,9.5,8,9.5S7.518,9.515,7.248,9.541
			l0.537,1.115l-0.582,2.383L5.709,9.797C3.881,10.229,2,11.131,2,12.5V14h12v-1.5C14,11.131,12.119,10.229,10.291,9.797z"/>
	</g>
	<g id="Capa_2">
		<path fill="#E53935" d="M7.238,9.535l0.539,1.125l-0.563,2.391l0.75,0.938l0.834-0.95L8.222,10.66l0.575-1.125
			C8.797,9.535,8.117,9.395,7.238,9.535z"/>
	</g>
</g>
<g>
	<g id="Layer_1_2_">
		<circle fill="#546E7A" cx="16" cy="5" r="3"/>
		<path fill="#37474F" d="M18.291,9.797l-1.492,3.24l-0.581-2.382l0.535-1.116C16.483,9.515,16.227,9.5,16,9.5
			s-0.482,0.015-0.752,0.041l0.537,1.115l-0.582,2.383l-1.494-3.242C11.881,10.229,10,11.131,10,12.5V14h12v-1.5
			C22,11.131,20.119,10.229,18.291,9.797z"/>
	</g>
	<g id="Capa_2_1_">
		<path fill="#E53935" d="M15.238,9.535l0.539,1.125l-0.563,2.391l0.75,0.938l0.834-0.95l-0.577-2.378l0.575-1.125
			C16.797,9.535,16.117,9.395,15.238,9.535z"/>
	</g>
</g>
<rect x="2" y="14" fill="#A1887F" width="20" height="9"/>
<rect x="5" y="16" fill="#D7CCC8" width="5" height="5"/>
<rect x="14" y="16" fill="#D7CCC8" width="5" height="5"/>
<rect fill="none" width="24" height="24"/>
</svg>
