<?xml version="1.0" encoding="utf-8"?>
<!-- Generator: Adobe Illustrator 15.0.0, SVG Export Plug-In . SVG Version: 6.00 Build 0)  -->
<!DOCTYPE svg PUBLIC "-//W3C//DTD SVG 1.1//EN" "http://www.w3.org/Graphics/SVG/1.1/DTD/svg11.dtd">
<svg version="1.1" id="Capa_1" xmlns="http://www.w3.org/2000/svg" xmlns:xlink="http://www.w3.org/1999/xlink" x="0px" y="0px"
	 width="24px" height="24px" viewBox="0 0 24 24" enable-background="new 0 0 24 24" xml:space="preserve">
<rect fill="none" width="24" height="24"/>
<path fill="#D7CCC8" d="M2,9v10c0,1.1,0.891,2,2,2h16c1.1,0,2-0.9,2-2L21.992,9H2z"/>
<polyline fill="#465B65" points="14,11 12.25,11 10,12.251 10,14 11.666,13.229 11.666,19 14,18.998 14,11 "/>
<path fill="#C2185B" d="M21.992,6c0-1.1-0.9-2-2-2h-16c-1.109,0-1.99,0.9-1.99,2L2,9h19.992V6z"/>
<path fill="#A1887F" d="M8,6H6V2h2V6z M18,2h-2v4h2V2z"/>
<path fill="none" d="M0,0h24v24H0V0z"/>
</svg>
